<mxfile host="65bd71144e">
    <diagram id="-l0ceF_Qglaat7coT8vC" name="Page-1">
        <mxGraphModel dx="1098" dy="725" grid="1" gridSize="10" guides="1" tooltips="1" connect="1" arrows="1" fold="1" page="1" pageScale="1" pageWidth="3300" pageHeight="4681" math="0" shadow="0">
            <root>
                <mxCell id="0"/>
                <mxCell id="1" parent="0"/>
                <mxCell id="5" value="&lt;ol&gt;&lt;li&gt;凌晨英语单词&lt;/li&gt;&lt;li&gt;高数使用汤家凤&lt;/li&gt;&lt;li&gt;数据结构&lt;/li&gt;&lt;li&gt;蓝桥杯&lt;/li&gt;&lt;/ol&gt;" style="text;strokeColor=none;fillColor=none;html=1;whiteSpace=wrap;verticalAlign=middle;overflow=hidden;fontSize=40;" vertex="1" parent="1">
                    <mxGeometry x="160" y="70" width="400" height="390" as="geometry"/>
                </mxCell>
            </root>
        </mxGraphModel>
    </diagram>
</mxfile>